# xmcd
#
# Track frame offsets: 
#        150
#        19615
#        34084
#        52807
#
# Disc length: 966 seconds
#
# Revision: 1
# Processed by: cddbd v1.5.2PL0 Copyright (c) Steve Scherf et al.
# Submitted via: ExactAudioCopy v0.95a4
#
DISCID=2303c404
DTITLE=Joanne Shaw Taylor - The Dirty Truth Live EP
DYEAR=2014
DGENRE=Blues
TTITLE0=Mud, Honey (Live)
TTITLE1=The Dirty Truth (Live)
TTITLE2=Fool In Love (Live)
TTITLE3=Outlaw Angel (Live)
EXTD=Year: 2014\n\n\n\n\n\n                                           
EXTD=    www.joanneshawtaylor.com
EXTT0=
EXTT1=
EXTT2=
EXTT3=
PLAYORDER=
